<mxfile host="app.diagrams.net" modified="2024-06-05T19:01:22.296Z" agent="Mozilla/5.0 (Macintosh; Intel Mac OS X 10_15_7) AppleWebKit/537.36 (KHTML, like Gecko) Chrome/125.0.0.0 Safari/537.36" etag="WaZgjMpQ03wOzT3D7S6N" version="24.4.14" type="github">
  <diagram id="NfvTA-3BEHOrYZFeVf58" name="Page-1">
    <mxGraphModel dx="1970" dy="1389" grid="0" gridSize="10" guides="0" tooltips="0" connect="0" arrows="0" fold="1" page="0" pageScale="1" pageWidth="850" pageHeight="1100" background="none" math="0" shadow="0">
      <root>
        <mxCell id="0" />
        <mxCell id="1" parent="0" />
        <mxCell id="node8" value="&lt;p style=&quot;margin:0px;margin-top:4px;text-align:center;&quot;&gt;&lt;b&gt;AbortPolicy&lt;/b&gt;&lt;/p&gt;&lt;hr size=&quot;1&quot;&gt;&lt;p style=&quot;margin:0 0 0 4px;line-height:1.6;&quot;&gt;+ AbortPolicy(): &lt;/p&gt;" style="verticalAlign=top;align=left;overflow=fill;fontSize=14;fontFamily=JetBrainsMono Nerd Font Mono;html=1;rounded=1;shadow=0;comic=0;labelBackgroundColor=none;strokeWidth=1;flipH=0;flipV=0;" parent="1" vertex="1">
          <mxGeometry x="-135" y="260" width="186" height="71" as="geometry" />
        </mxCell>
        <mxCell id="node3" value="&lt;p style=&quot;margin:0px;margin-top:4px;text-align:center;&quot;&gt;&lt;b&gt;AbstractExecutorService&lt;/b&gt;&lt;/p&gt;&lt;hr size=&quot;1&quot;&gt;&lt;p style=&quot;margin:0 0 0 4px;line-height:1.6;&quot;&gt;+ AbstractExecutorService(): &lt;/p&gt;" style="verticalAlign=top;align=left;overflow=fill;fontSize=14;fontFamily=JetBrainsMono Nerd Font Mono;html=1;rounded=1;shadow=0;comic=0;labelBackgroundColor=none;strokeWidth=1;flipH=0;flipV=0;" parent="1" vertex="1">
          <mxGeometry x="193" y="-100" width="318" height="71" as="geometry" />
        </mxCell>
        <mxCell id="node12" value="&lt;p style=&quot;margin:0px;margin-top:4px;text-align:center;&quot;&gt;&lt;b&gt;CallerRunsPolicy&lt;/b&gt;&lt;/p&gt;&lt;hr size=&quot;1&quot;&gt;&lt;p style=&quot;margin:0 0 0 4px;line-height:1.6;&quot;&gt;+ CallerRunsPolicy(): &lt;/p&gt;" style="verticalAlign=top;align=left;overflow=fill;fontSize=14;fontFamily=JetBrainsMono Nerd Font Mono;html=1;rounded=1;shadow=0;comic=0;labelBackgroundColor=none;strokeWidth=1;flipH=0;flipV=0;" parent="1" vertex="1">
          <mxGeometry x="81" y="260" width="241" height="71" as="geometry" />
        </mxCell>
        <mxCell id="node7" value="&lt;p style=&quot;margin:0px;margin-top:4px;text-align:center;&quot;&gt;&lt;b&gt;DelayedWorkQueue&lt;/b&gt;&lt;/p&gt;&lt;hr size=&quot;1&quot;&gt;&lt;p style=&quot;margin:0 0 0 4px;line-height:1.6;&quot;&gt;+ DelayedWorkQueue(): &lt;/p&gt;" style="verticalAlign=top;align=left;overflow=fill;fontSize=14;fontFamily=JetBrainsMono Nerd Font Mono;html=1;rounded=1;shadow=0;comic=0;labelBackgroundColor=none;strokeWidth=1;flipH=0;flipV=0;" parent="1" vertex="1">
          <mxGeometry x="571" y="612" width="241" height="71" as="geometry" />
        </mxCell>
        <mxCell id="node13" value="&lt;p style=&quot;margin:0px;margin-top:4px;text-align:center;&quot;&gt;&lt;b&gt;DiscardOldestPolicy&lt;/b&gt;&lt;/p&gt;&lt;hr size=&quot;1&quot;&gt;&lt;p style=&quot;margin:0 0 0 4px;line-height:1.6;&quot;&gt;+ DiscardOldestPolicy(): &lt;/p&gt;" style="verticalAlign=top;align=left;overflow=fill;fontSize=14;fontFamily=JetBrainsMono Nerd Font Mono;html=1;rounded=1;shadow=0;comic=0;labelBackgroundColor=none;strokeWidth=1;flipH=0;flipV=0;" parent="1" vertex="1">
          <mxGeometry x="201" y="386" width="274" height="71" as="geometry" />
        </mxCell>
        <mxCell id="node11" value="&lt;p style=&quot;margin:0px;margin-top:4px;text-align:center;&quot;&gt;&lt;b&gt;DiscardPolicy&lt;/b&gt;&lt;/p&gt;&lt;hr size=&quot;1&quot;&gt;&lt;p style=&quot;margin:0 0 0 4px;line-height:1.6;&quot;&gt;+ DiscardPolicy(): &lt;/p&gt;" style="verticalAlign=top;align=left;overflow=fill;fontSize=14;fontFamily=JetBrainsMono Nerd Font Mono;html=1;rounded=1;shadow=0;comic=0;labelBackgroundColor=none;strokeWidth=1;flipH=0;flipV=0;" parent="1" vertex="1">
          <mxGeometry x="-278" y="386" width="208" height="71" as="geometry" />
        </mxCell>
        <mxCell id="node4" value="&lt;p style=&quot;margin:0px;margin-top:4px;text-align:center;&quot;&gt;&lt;i&gt;&amp;lt;&amp;lt;interface&amp;gt;&amp;gt;&lt;/i&gt;&lt;br&gt;&lt;b&gt;Executor&lt;/b&gt;&lt;/p&gt;&lt;hr size=&quot;1&quot;&gt;" style="verticalAlign=top;align=left;overflow=fill;fontSize=14;fontFamily=JetBrainsMono Nerd Font Mono;html=1;rounded=1;shadow=0;comic=0;labelBackgroundColor=none;strokeWidth=1;flipH=0;flipV=0;" parent="1" vertex="1">
          <mxGeometry x="322" y="-350" width="151" height="45" as="geometry" />
        </mxCell>
        <mxCell id="node5" value="&lt;p style=&quot;margin:0px;margin-top:4px;text-align:center;&quot;&gt;&lt;i&gt;&amp;lt;&amp;lt;interface&amp;gt;&amp;gt;&lt;/i&gt;&lt;br&gt;&lt;b&gt;ExecutorService&lt;/b&gt;&lt;/p&gt;&lt;hr size=&quot;1&quot;&gt;" style="verticalAlign=top;align=left;overflow=fill;fontSize=14;fontFamily=JetBrainsMono Nerd Font Mono;html=1;rounded=1;shadow=0;comic=0;labelBackgroundColor=none;strokeWidth=1;flipH=0;flipV=0;arcSize=50;" parent="1" vertex="1">
          <mxGeometry x="284" y="-255" width="228" height="45" as="geometry" />
        </mxCell>
        <mxCell id="node6" value="&lt;p style=&quot;margin:0px;margin-top:4px;text-align:center;&quot;&gt;&lt;b&gt;Itr&lt;/b&gt;&lt;/p&gt;&lt;hr size=&quot;1&quot;&gt;&lt;p style=&quot;margin:0 0 0 4px;line-height:1.6;&quot;&gt;~ Itr(RunnableScheduledFuture&amp;lt;?&amp;gt;[]): &lt;/p&gt;" style="verticalAlign=top;align=left;overflow=fill;fontSize=14;fontFamily=JetBrainsMono Nerd Font Mono;html=1;rounded=1;shadow=0;comic=0;labelBackgroundColor=none;strokeWidth=1;flipH=0;flipV=0;" parent="1" vertex="1">
          <mxGeometry x="509" y="698" width="364" height="71" as="geometry" />
        </mxCell>
        <mxCell id="node1" value="&lt;p style=&quot;margin:0px;margin-top:4px;text-align:center;&quot;&gt;&lt;i&gt;&amp;lt;&amp;lt;interface&amp;gt;&amp;gt;&lt;/i&gt;&lt;br&gt;&lt;b&gt;ScheduledExecutorService&lt;/b&gt;&lt;/p&gt;&lt;hr size=&quot;1&quot;&gt;" style="verticalAlign=top;align=left;overflow=fill;fontSize=14;fontFamily=JetBrainsMono Nerd Font Mono;html=1;rounded=1;shadow=0;comic=0;labelBackgroundColor=none;strokeWidth=1;flipH=0;flipV=0;" parent="1" vertex="1">
          <mxGeometry x="517" y="153" width="327" height="45" as="geometry" />
        </mxCell>
        <mxCell id="node9" value="&lt;p style=&quot;margin:0px;margin-top:4px;text-align:center;&quot;&gt;&lt;b&gt;ScheduledFutureTask&lt;/b&gt;&lt;/p&gt;&lt;hr size=&quot;1&quot;&gt;&lt;p style=&quot;margin:0 0 0 4px;line-height:1.6;&quot;&gt;~ ScheduledFutureTask(Callable&amp;lt;V&amp;gt;, long): &lt;br&gt;~ ScheduledFutureTask(Runnable, V, long, long): &lt;br&gt;~ ScheduledFutureTask(Runnable, V, long): &lt;/p&gt;" style="verticalAlign=top;align=left;overflow=fill;fontSize=14;fontFamily=JetBrainsMono Nerd Font Mono;html=1;rounded=1;shadow=0;comic=0;labelBackgroundColor=none;strokeWidth=1;flipH=0;flipV=0;" parent="1" vertex="1">
          <mxGeometry x="706" y="472" width="463" height="130" as="geometry" />
        </mxCell>
        <mxCell id="node0" value="&lt;p style=&quot;margin:0px;margin-top:4px;text-align:center;&quot;&gt;&lt;b&gt;ScheduledThreadPoolExecutor&lt;/b&gt;&lt;/p&gt;&lt;hr size=&quot;1&quot;&gt;&lt;p style=&quot;margin:0 0 0 4px;line-height:1.6;&quot;&gt;+ ScheduledThreadPoolExecutor(int): &lt;br&gt;+ ScheduledThreadPoolExecutor(int, RejectedExecutionHandler): &lt;br&gt;+ ScheduledThreadPoolExecutor(int, ThreadFactory): &lt;br&gt;+ ScheduledThreadPoolExecutor(int, ThreadFactory, RejectedExecutionHandler): &lt;/p&gt;" style="verticalAlign=top;align=left;overflow=fill;fontSize=14;fontFamily=JetBrainsMono Nerd Font Mono;html=1;rounded=1;shadow=0;comic=0;labelBackgroundColor=none;strokeWidth=1;flipH=0;flipV=0;" parent="1" vertex="1">
          <mxGeometry x="353" y="219" width="595" height="147" as="geometry" />
        </mxCell>
        <mxCell id="node2" value="&lt;p style=&quot;margin:0px;margin-top:4px;text-align:center;&quot;&gt;&lt;b&gt;&lt;font&gt;ThreadPoolExecutor&lt;/font&gt;&lt;/b&gt;&lt;/p&gt;&lt;hr size=&quot;1&quot;&gt;&lt;p style=&quot;margin:0 0 0 4px;line-height:1.6;&quot;&gt;&lt;font&gt;+ ThreadPoolExecutor(int, int, long, TimeUnit, BlockingQueue&amp;lt;Runnable&amp;gt;, ThreadFactory): &lt;br&gt;+ ThreadPoolExecutor(int, int, long, TimeUnit, BlockingQueue&amp;lt;Runnable&amp;gt;, ThreadFactory, RejectedExecutionHandler): &lt;br&gt;+ ThreadPoolExecutor(int, int, long, TimeUnit, BlockingQueue&amp;lt;Runnable&amp;gt;, RejectedExecutionHandler): &lt;br&gt;+ ThreadPoolExecutor(int, int, long, TimeUnit, BlockingQueue&amp;lt;Runnable&amp;gt;): &lt;/font&gt;&lt;/p&gt;" style="verticalAlign=top;align=left;overflow=fill;fontSize=14;fontFamily=JetBrainsMono Nerd Font Mono;html=1;rounded=1;shadow=0;comic=0;labelBackgroundColor=none;strokeWidth=1.5;flipH=0;flipV=0;textShadow=0;fillStyle=auto;" parent="1" vertex="1">
          <mxGeometry x="53" y="-14" width="816" height="147" as="geometry" />
        </mxCell>
        <mxCell id="node10" value="&lt;p style=&quot;margin:0px;margin-top:4px;text-align:center;&quot;&gt;&lt;b&gt;Worker&lt;/b&gt;&lt;/p&gt;&lt;hr size=&quot;1&quot;&gt;&lt;p style=&quot;margin:0 0 0 4px;line-height:1.6;&quot;&gt;~ Worker(Runnable): &lt;/p&gt;" style="verticalAlign=top;align=left;overflow=fill;fontSize=14;fontFamily=JetBrainsMono Nerd Font Mono;html=1;rounded=1;shadow=0;comic=0;labelBackgroundColor=none;strokeWidth=1;flipH=0;flipV=0;" parent="1" vertex="1">
          <mxGeometry x="-40" y="386" width="211" height="71" as="geometry" />
        </mxCell>
        <mxCell id="edge12" value="" style="html=1;rounded=1;edgeStyle=orthogonalEdgeStyle;dashed=0;startArrow=circlePlus;startFill=0;endArrow=none;strokeColor=#820000;exitX=0.500;exitY=0.001;exitDx=0;exitDy=0;entryX=0.250;entryY=1.000;entryDx=0;entryDy=0;fontFamily=JetBrainsMono Nerd Font Mono;" parent="1" source="node8" target="node2" edge="1">
          <mxGeometry width="50" height="50" relative="1" as="geometry">
            <Array as="points">
              <mxPoint x="-42" y="161" />
              <mxPoint x="202" y="161" />
            </Array>
          </mxGeometry>
        </mxCell>
        <mxCell id="edge4" value="" style="html=1;rounded=1;edgeStyle=orthogonalEdgeStyle;dashed=1;startArrow=none;endArrow=block;endSize=12;strokeColor=#008200;exitX=0.500;exitY=0.000;exitDx=0;exitDy=0;entryX=0.250;entryY=1.001;entryDx=0;entryDy=0;fontFamily=JetBrainsMono Nerd Font Mono;" parent="1" source="node3" target="node5" edge="1">
          <mxGeometry width="50" height="50" relative="1" as="geometry">
            <Array as="points" />
          </mxGeometry>
        </mxCell>
        <mxCell id="edge9" value="" style="html=1;rounded=1;edgeStyle=orthogonalEdgeStyle;dashed=0;startArrow=circlePlus;startFill=0;endArrow=none;strokeColor=#820000;exitX=0.500;exitY=0.001;exitDx=0;exitDy=0;entryX=0.250;entryY=1.000;entryDx=0;entryDy=0;fontFamily=JetBrainsMono Nerd Font Mono;" parent="1" source="node12" target="node2" edge="1">
          <mxGeometry width="50" height="50" relative="1" as="geometry">
            <Array as="points">
              <mxPoint x="201.5" y="250" />
              <mxPoint x="202.5" y="250" />
            </Array>
          </mxGeometry>
        </mxCell>
        <mxCell id="edge11" value="" style="html=1;rounded=1;dashed=0;startArrow=circlePlus;startFill=0;endArrow=none;strokeColor=default;exitX=0.500;exitY=0.001;exitDx=0;exitDy=0;entryX=0.500;entryY=1.000;entryDx=0;entryDy=0;edgeStyle=orthogonalEdgeStyle;curved=1;fontFamily=JetBrainsMono Nerd Font Mono;" parent="1" source="node7" target="node0" edge="1">
          <mxGeometry width="50" height="50" relative="1" as="geometry">
            <Array as="points">
              <mxPoint x="691.5" y="531" />
              <mxPoint x="539.5" y="531" />
              <mxPoint x="539.5" y="366" />
            </Array>
          </mxGeometry>
        </mxCell>
        <mxCell id="edge6" value="" style="html=1;rounded=1;edgeStyle=orthogonalEdgeStyle;dashed=0;startArrow=circlePlus;startFill=0;endArrow=none;strokeColor=#820000;exitX=0.500;exitY=0.000;exitDx=0;exitDy=0;entryX=0.250;entryY=1.000;entryDx=0;entryDy=0;fontFamily=JetBrainsMono Nerd Font Mono;" parent="1" source="node13" target="node2" edge="1">
          <mxGeometry width="50" height="50" relative="1" as="geometry">
            <Array as="points">
              <mxPoint x="338" y="161" />
              <mxPoint x="202" y="161" />
            </Array>
          </mxGeometry>
        </mxCell>
        <mxCell id="edge7" value="" style="html=1;rounded=1;edgeStyle=orthogonalEdgeStyle;dashed=0;startArrow=circlePlus;startFill=0;endArrow=none;strokeColor=#820000;exitX=0.500;exitY=0.001;exitDx=0;exitDy=0;entryX=0.250;entryY=1.000;entryDx=0;entryDy=0;fontFamily=JetBrainsMono Nerd Font Mono;" parent="1" source="node11" target="node2" edge="1">
          <mxGeometry width="50" height="50" relative="1" as="geometry">
            <Array as="points">
              <mxPoint x="-174" y="240" />
              <mxPoint x="222" y="240" />
              <mxPoint x="222" y="161" />
              <mxPoint x="202" y="161" />
            </Array>
          </mxGeometry>
        </mxCell>
        <mxCell id="edge1" value="" style="html=1;rounded=1;edgeStyle=orthogonalEdgeStyle;dashed=0;startArrow=none;endArrow=block;endSize=12;strokeColor=#008200;exitX=0.500;exitY=0.001;exitDx=0;exitDy=0;entryX=0.500;entryY=1.001;entryDx=0;entryDy=0;fontFamily=JetBrainsMono Nerd Font Mono;" parent="1" source="node5" target="node4" edge="1">
          <mxGeometry width="50" height="50" relative="1" as="geometry">
            <Array as="points" />
          </mxGeometry>
        </mxCell>
        <mxCell id="edge10" value="" style="html=1;rounded=1;edgeStyle=orthogonalEdgeStyle;dashed=0;startArrow=circlePlus;startFill=0;endArrow=none;strokeColor=#820000;exitX=0.500;exitY=0.001;exitDx=0;exitDy=0;entryX=0.500;entryY=1.001;entryDx=0;entryDy=0;fontFamily=JetBrainsMono Nerd Font Mono;" parent="1" source="node6" target="node7" edge="1">
          <mxGeometry width="50" height="50" relative="1" as="geometry">
            <Array as="points" />
          </mxGeometry>
        </mxCell>
        <mxCell id="edge8" value="" style="html=1;rounded=1;edgeStyle=orthogonalEdgeStyle;dashed=0;startArrow=circlePlus;startFill=0;endArrow=none;strokeColor=#820000;exitX=0.500;exitY=0.000;exitDx=0;exitDy=0;entryX=0.500;entryY=1.000;entryDx=0;entryDy=0;fontFamily=JetBrainsMono Nerd Font Mono;" parent="1" source="node9" target="node0" edge="1">
          <mxGeometry width="50" height="50" relative="1" as="geometry">
            <Array as="points">
              <mxPoint x="937.5" y="462" />
              <mxPoint x="670.5" y="462" />
              <mxPoint x="670.5" y="409" />
              <mxPoint x="650.5" y="409" />
            </Array>
          </mxGeometry>
        </mxCell>
        <mxCell id="edge0" value="" style="html=1;rounded=1;edgeStyle=orthogonalEdgeStyle;dashed=1;startArrow=none;endArrow=block;endSize=12;strokeColor=#008200;exitX=0.750;exitY=0.000;exitDx=0;exitDy=0;entryX=0.500;entryY=1.001;entryDx=0;entryDy=0;fontFamily=JetBrainsMono Nerd Font Mono;" parent="1" source="node0" target="node1" edge="1">
          <mxGeometry width="50" height="50" relative="1" as="geometry">
            <Array as="points">
              <mxPoint x="799" y="209" />
              <mxPoint x="680" y="209" />
            </Array>
          </mxGeometry>
        </mxCell>
        <mxCell id="edge3" value="" style="html=1;rounded=1;edgeStyle=orthogonalEdgeStyle;dashed=0;startArrow=none;endArrow=block;endSize=12;strokeColor=#000082;exitX=0.250;exitY=0.000;exitDx=0;exitDy=0;entryX=0.750;entryY=1.000;entryDx=0;entryDy=0;fontFamily=JetBrainsMono Nerd Font Mono;" parent="1" source="node0" target="node2" edge="1">
          <mxGeometry width="50" height="50" relative="1" as="geometry">
            <Array as="points" />
          </mxGeometry>
        </mxCell>
        <mxCell id="edge5" value="" style="html=1;rounded=1;edgeStyle=orthogonalEdgeStyle;dashed=0;startArrow=none;endArrow=block;endSize=12;strokeColor=#000082;exitX=0.500;exitY=0.000;exitDx=0;exitDy=0;entryX=0.500;entryY=1.001;entryDx=0;entryDy=0;fontFamily=JetBrainsMono Nerd Font Mono;" parent="1" source="node2" target="node3" edge="1">
          <mxGeometry width="50" height="50" relative="1" as="geometry">
            <Array as="points" />
          </mxGeometry>
        </mxCell>
        <mxCell id="edge13" value="" style="html=1;rounded=1;edgeStyle=orthogonalEdgeStyle;dashed=0;startArrow=circlePlus;startFill=0;endArrow=none;strokeColor=#820000;exitX=0.500;exitY=0.001;exitDx=0;exitDy=0;entryX=0.250;entryY=1.000;entryDx=0;entryDy=0;fontFamily=JetBrainsMono Nerd Font Mono;" parent="1" source="node10" target="node2" edge="1">
          <mxGeometry width="50" height="50" relative="1" as="geometry">
            <Array as="points">
              <mxPoint x="193.5" y="250" />
              <mxPoint x="65.5" y="250" />
              <mxPoint x="65.5" y="161" />
              <mxPoint x="329.5" y="161" />
            </Array>
          </mxGeometry>
        </mxCell>
        <mxCell id="jvciefT9h-73CzGy2Gg1-2" value="" style="curved=1;endArrow=classic;html=1;rounded=1;fontFamily=JetBrainsMono Nerd Font Mono;" edge="1" parent="1">
          <mxGeometry width="50" height="50" relative="1" as="geometry">
            <mxPoint x="740" y="142" as="sourcePoint" />
            <mxPoint x="444" y="-207" as="targetPoint" />
            <Array as="points">
              <mxPoint x="602" y="-137" />
              <mxPoint x="544" y="-166" />
            </Array>
          </mxGeometry>
        </mxCell>
      </root>
    </mxGraphModel>
  </diagram>
</mxfile>
